<?xml version="1.0" encoding="UTF-8"?>
<svg xmlns="http://www.w3.org/2000/svg" xmlns:xlink="http://www.w3.org/1999/xlink" width="2735" height="1330" viewBox="0 0 2735 1330">

<path fill-rule="evenodd" fill="rgb(100%, 100%, 100%)" fill-opacity="1" d="M 62.355469 1283.050781 L 2673.308594 1283.050781 L 2673.308594 47.511719 L 62.355469 47.511719 L 62.355469 1283.050781 "/>
<path fill-rule="evenodd" fill="rgb(19.454956%, 60.68573%, 25.259399%)" fill-opacity="1" d="M 128.554688 87.148438 L 2607.109375 87.148438 C 2611.988281 87.148438 2615.96875 91.71875 2615.96875 97.289062 L 2615.96875 1226.089844 C 2615.96875 1231.664062 2611.988281 1236.230469 2607.109375 1236.230469 L 128.554688 1236.230469 C 123.679688 1236.230469 119.691406 1231.664062 119.691406 1226.089844 L 119.691406 97.289062 C 119.691406 91.71875 123.679688 87.148438 128.554688 87.148438 "/>
<path fill-rule="evenodd" fill="rgb(100%, 100%, 100%)" fill-opacity="1" d="M 1828.390625 362.628906 L 2079.679688 361.414062 L 2373.058594 661.570312 L 2373.539062 661.570312 L 2373.300781 661.8125 L 2373.539062 662.054688 L 2373.058594 662.054688 L 2079.679688 961.96875 L 1828.390625 961 L 2038.078125 751.058594 L 1684.46875 751.058594 L 1684.46875 572.320312 L 2038.078125 572.320312 L 1828.390625 362.628906 "/>
<path fill-rule="nonzero" fill="rgb(100%, 100%, 100%)" fill-opacity="1" d="M 1201.890625 482.785156 L 1509.230469 482.785156 L 1509.230469 571.078125 L 1406 571.078125 L 1406 840.597656 L 1305.109375 840.597656 L 1305.109375 571.078125 L 1201.890625 571.078125 Z M 1051.171875 482.785156 L 1152.429688 482.785156 L 1152.429688 840.597656 L 1051.171875 840.597656 Z M 669.484375 482.785156 L 780.996094 482.785156 L 838.738281 592.984375 L 895.175781 482.785156 L 1005.058594 482.785156 L 903.484375 656.046875 L 1014.648438 840.597656 L 900.832031 840.597656 L 836.769531 725.753906 L 772.367188 840.597656 L 659.515625 840.597656 L 772.03125 654.058594 Z M 362.117188 482.785156 L 632.285156 482.785156 L 632.285156 559.132812 L 463.339844 559.132812 L 463.339844 616.21875 L 620.023438 616.21875 L 620.023438 689.242188 L 463.339844 689.242188 L 463.339844 759.609375 L 637.28125 759.609375 L 637.28125 840.597656 L 362.117188 840.597656 L 362.117188 482.785156 "/>
</svg>
